# xmcd
#
# Track frame offsets:
#	150
#	13600
#	28157
#	39087
#	53517
#	66387
#	80615
#	96740
#	110892
#	123372
#	140745
#	154817
#	168770
#	179372
#	191607
#
# Disc length: 2678 seconds
#
# Revision: 0
# Processed by: cddbd v1.5.1PL0 Copyright (c) Steve Scherf et al.
# Submitted via: dBpowerAMP V4.0
#
DISCID=d00a740f
DTITLE=Dolly Parton - The RCA Years 1967-1986  Disc. 1
DYEAR=1993
DGENRE=Country
TTITLE0=The Letter
TTITLE1=Muleskinner Blues
TTITLE2=Put It Off Until Tomorrow  with Porter Wagoner
TTITLE3=My Tennessee Mountain Home
TTITLE4=In The Good Old Days ( When Times Were Bad )
TTITLE5=Coat Of Many Colors
TTITLE6=My Blue Ridge Mountain Boy
TTITLE7=Just Because I'm A Woman
TTITLE8=Jolene
TTITLE9=Down From Dover
TTITLE10=The Last One To Touch Me
TTITLE11=Daddy Come And Get Me
TTITLE12=My Blue Tears
TTITLE13=Kentucky Gambler
TTITLE14=I Will Always Love You
EXTD=
EXTT0=
EXTT1=
EXTT2=
EXTT3=
EXTT4=
EXTT5=
EXTT6=
EXTT7=
EXTT8=
EXTT9=
EXTT10=
EXTT11=
EXTT12=
EXTT13=
EXTT14=
PLAYORDER=
